<svg width="128" height="128" viewBox="0 0 128 128" fill="none" xmlns="http://www.w3.org/2000/svg">
<rect width="128" height="128" rx="32" fill="url(#paint0_linear_50_115)"/>
<path d="M44.979 104C42.993 104 41.3 103.293 39.9 101.879C38.5 100.465 37.8 98.765 37.8 96.779C37.8 94.793 38.507 93.1 39.921 91.7C41.335 90.3 43.035 89.6 45.021 89.6C47.007 89.6 48.7 90.307 50.1 91.721C51.5 93.135 52.2 94.835 52.2 96.821C52.2 98.807 51.493 100.5 50.079 101.9C48.665 103.3 46.965 104 44.979 104ZM85.379 104C83.393 104 81.7 103.293 80.3 101.879C78.9 100.465 78.2 98.765 78.2 96.779C78.2 94.793 78.907 93.1 80.321 91.7C81.735 90.3 83.435 89.6 85.421 89.6C87.407 89.6 89.1 90.307 90.5 91.721C91.9 93.135 92.6 94.835 92.6 96.821C92.6 98.807 91.893 100.5 90.479 101.9C89.065 103.3 87.365 104 85.379 104ZM30 30H25.2C24.35 30 23.6377 29.7107 23.063 29.132C22.4877 28.554 22.2 27.8373 22.2 26.982C22.2 26.1273 22.4877 25.4167 23.063 24.85C23.6377 24.2833 24.35 24 25.2 24H31.9C32.5 24 33.04 24.1477 33.52 24.443C34 24.739 34.36 25.158 34.6 25.7L50.8 60.4H79.6L94.8 33.9C95.0667 33.4333 95.425 33.0667 95.875 32.8C96.325 32.5333 96.825 32.4 97.375 32.4C98.525 32.4 99.3833 32.8667 99.95 33.8C100.517 34.7333 100.533 35.7 100 36.7L86.1 62.7C85.3667 63.9667 84.4147 64.9833 83.244 65.75C82.0733 66.5167 80.792 66.9 79.4 66.9H49.1L43.5 77.3H89.6C90.45 77.3 91.1627 77.5893 91.738 78.168C92.3127 78.746 92.6 79.4627 92.6 80.318C92.6 81.1727 92.3127 81.8833 91.738 82.45C91.1627 83.0167 90.45 83.3 89.6 83.3H44.4C41.8893 83.3 39.9783 82.3 38.667 80.3C37.3557 78.3 37.2667 76.2667 38.4 74.2L44.8 62.4L30 30ZM67.2 43H52C51.15 43 50.4377 42.7107 49.863 42.132C49.2877 41.554 49 40.8373 49 39.982C49 39.1273 49.2877 38.4167 49.863 37.85C50.4377 37.2833 51.15 37 52 37H67.2L61.9 31.7C61.3 31.1 61 30.4 61 29.6C61 28.8 61.3 28.087 61.9 27.461C62.5 26.887 63.2 26.6 64 26.6C64.8 26.6 65.5 26.9 66.1 27.5L76.5 37.9C77.1 38.5 77.4 39.2 77.4 40C77.4 40.8 77.1 41.5 76.5 42.1L66.1 52.5C65.5 53.1 64.8 53.4 64 53.4C63.2 53.4 62.5 53.1 61.9 52.5C61.3 51.9 61 51.2 61 50.4C61 49.6 61.3 48.9 61.9 48.3L67.2 43Z" fill="white"/>
<defs>
<linearGradient id="paint0_linear_50_115" x1="0" y1="0" x2="128" y2="128" gradientUnits="userSpaceOnUse">
<stop stop-color="#FA784B"/>
<stop offset="1" stop-color="#FE50D1"/>
</linearGradient>
</defs>
</svg>
