<svg width="496" height="128" viewBox="0 0 496 128" fill="none" xmlns="http://www.w3.org/2000/svg">
<g clip-path="url(#clip0_50_103)">
<rect width="128" height="128" rx="32" fill="url(#paint0_linear_50_103)"/>
<path d="M44.979 104C42.993 104 41.3 103.293 39.9 101.879C38.5 100.465 37.8 98.765 37.8 96.779C37.8 94.793 38.507 93.1 39.921 91.7C41.335 90.3 43.035 89.6 45.021 89.6C47.007 89.6 48.7 90.307 50.1 91.721C51.5 93.135 52.2 94.835 52.2 96.821C52.2 98.807 51.493 100.5 50.079 101.9C48.665 103.3 46.965 104 44.979 104ZM85.379 104C83.393 104 81.7 103.293 80.3 101.879C78.9 100.465 78.2 98.765 78.2 96.779C78.2 94.793 78.907 93.1 80.321 91.7C81.735 90.3 83.435 89.6 85.421 89.6C87.407 89.6 89.1 90.307 90.5 91.721C91.9 93.135 92.6 94.835 92.6 96.821C92.6 98.807 91.893 100.5 90.479 101.9C89.065 103.3 87.365 104 85.379 104ZM30 30H25.2C24.35 30 23.6377 29.7107 23.063 29.132C22.4877 28.554 22.2 27.8373 22.2 26.982C22.2 26.1273 22.4877 25.4167 23.063 24.85C23.6377 24.2833 24.35 24 25.2 24H31.9C32.5 24 33.04 24.1477 33.52 24.443C34 24.739 34.36 25.158 34.6 25.7L50.8 60.4H79.6L94.8 33.9C95.0667 33.4333 95.425 33.0667 95.875 32.8C96.325 32.5333 96.825 32.4 97.375 32.4C98.525 32.4 99.3833 32.8667 99.95 33.8C100.517 34.7333 100.533 35.7 100 36.7L86.1 62.7C85.3667 63.9667 84.4147 64.9833 83.244 65.75C82.0733 66.5167 80.792 66.9 79.4 66.9H49.1L43.5 77.3H89.6C90.45 77.3 91.1627 77.5893 91.738 78.168C92.3127 78.746 92.6 79.4627 92.6 80.318C92.6 81.1727 92.3127 81.8833 91.738 82.45C91.1627 83.0167 90.45 83.3 89.6 83.3H44.4C41.8893 83.3 39.9783 82.3 38.667 80.3C37.3557 78.3 37.2667 76.2667 38.4 74.2L44.8 62.4L30 30ZM67.2 43H52C51.15 43 50.4377 42.7107 49.863 42.132C49.2877 41.554 49 40.8373 49 39.982C49 39.1273 49.2877 38.4167 49.863 37.85C50.4377 37.2833 51.15 37 52 37H67.2L61.9 31.7C61.3 31.1 61 30.4 61 29.6C61 28.8 61.3 28.087 61.9 27.461C62.5 26.887 63.2 26.6 64 26.6C64.8 26.6 65.5 26.9 66.1 27.5L76.5 37.9C77.1 38.5 77.4 39.2 77.4 40C77.4 40.8 77.1 41.5 76.5 42.1L66.1 52.5C65.5 53.1 64.8 53.4 64 53.4C63.2 53.4 62.5 53.1 61.9 52.5C61.3 51.9 61 51.2 61 50.4C61 49.6 61.3 48.9 61.9 48.3L67.2 43Z" fill="white"/>
<path d="M188.128 35.704H171.76V42.424H184.816V48.808H171.76V61H163.504V29.32H188.128V35.704ZM196.399 34.216C194.735 34.216 193.519 33.912 192.751 33.304C192.015 32.664 191.647 31.672 191.647 30.328C191.647 28.952 192.015 27.96 192.751 27.352C193.519 26.712 194.735 26.392 196.399 26.392C198.031 26.392 199.231 26.712 199.999 27.352C200.767 27.96 201.151 28.952 201.151 30.328C201.151 31.672 200.767 32.664 199.999 33.304C199.231 33.912 198.031 34.216 196.399 34.216ZM200.479 37V61H192.319V37H200.479ZM206.287 61V37H213.583L214.015 45.256L213.103 44.344C213.423 42.616 213.983 41.176 214.783 40.024C215.615 38.872 216.639 38.008 217.855 37.432C219.103 36.824 220.495 36.52 222.031 36.52C223.695 36.52 225.135 36.84 226.351 37.48C227.599 38.12 228.575 39.064 229.279 40.312C229.983 41.56 230.335 43.128 230.335 45.016V61H222.175V47.176C222.175 45.512 221.855 44.36 221.215 43.72C220.575 43.08 219.759 42.76 218.767 42.76C217.999 42.76 217.279 42.952 216.607 43.336C215.935 43.688 215.407 44.264 215.023 45.064C214.639 45.864 214.447 46.936 214.447 48.28V61H206.287ZM244.885 61.48C242.901 61.48 241.157 61 239.653 60.04C238.181 59.048 237.029 57.624 236.197 55.768C235.397 53.912 234.997 51.688 234.997 49.096C234.997 46.408 235.413 44.136 236.245 42.28C237.109 40.424 238.293 39 239.797 38.008C241.333 37.016 243.093 36.52 245.077 36.52C247.253 36.52 248.997 37.192 250.309 38.536C251.653 39.848 252.517 41.528 252.901 43.576L252.133 44.584V26.824H260.293V61H252.997L252.469 52.84L253.429 53.56C253.237 55.16 252.741 56.552 251.941 57.736C251.173 58.92 250.181 59.848 248.965 60.52C247.781 61.16 246.421 61.48 244.885 61.48ZM247.717 55.48C248.645 55.48 249.429 55.24 250.069 54.76C250.741 54.248 251.253 53.496 251.605 52.504C251.957 51.512 252.133 50.296 252.133 48.856C252.133 47.512 251.957 46.376 251.605 45.448C251.285 44.488 250.789 43.768 250.117 43.288C249.477 42.776 248.693 42.52 247.765 42.52C246.357 42.52 245.237 43.048 244.405 44.104C243.605 45.128 243.205 46.76 243.205 49C243.205 51.24 243.605 52.888 244.405 53.944C245.205 54.968 246.309 55.48 247.717 55.48ZM274.885 29.32V61H266.629V29.32H274.885ZM291.366 29.368V52.456C291.366 53.608 291.638 54.44 292.182 54.952C292.758 55.432 293.542 55.672 294.534 55.672C295.302 55.672 295.958 55.592 296.502 55.432C297.078 55.24 297.59 54.968 298.038 54.616L298.902 59.656C298.102 60.232 297.094 60.68 295.878 61C294.662 61.32 293.414 61.48 292.134 61.48C290.31 61.48 288.726 61.224 287.382 60.712C286.07 60.2 285.046 59.384 284.31 58.264C283.606 57.144 283.238 55.656 283.206 53.8V31.624L291.366 29.368ZM298.518 37V42.808H279.078V37H298.518Z" fill="url(#paint1_linear_50_103)"/>
<path d="M176.128 84.536C175.808 84.1733 175.435 83.8533 175.008 83.576C174.581 83.2773 174.101 83.0213 173.568 82.808C173.035 82.5947 172.459 82.424 171.84 82.296C171.243 82.168 170.603 82.104 169.92 82.104C167.936 82.104 166.475 82.488 165.536 83.256C164.619 84.0027 164.16 85.0267 164.16 86.328C164.16 87.224 164.373 87.928 164.8 88.44C165.248 88.952 165.941 89.368 166.88 89.688C167.819 90.008 169.013 90.3387 170.464 90.68C172.085 91.0213 173.483 91.4267 174.656 91.896C175.829 92.3653 176.736 93.0053 177.376 93.816C178.016 94.6053 178.336 95.6827 178.336 97.048C178.336 98.0933 178.133 99 177.728 99.768C177.323 100.536 176.757 101.176 176.032 101.688C175.307 102.2 174.443 102.584 173.44 102.84C172.437 103.075 171.339 103.192 170.144 103.192C168.971 103.192 167.84 103.075 166.752 102.84C165.685 102.584 164.672 102.221 163.712 101.752C162.752 101.261 161.856 100.643 161.024 99.896L162.144 98.072C162.549 98.4987 163.029 98.904 163.584 99.288C164.16 99.6507 164.789 99.9813 165.472 100.28C166.176 100.579 166.923 100.813 167.712 100.984C168.523 101.133 169.355 101.208 170.208 101.208C172.021 101.208 173.429 100.877 174.432 100.216C175.456 99.5547 175.968 98.5733 175.968 97.272C175.968 96.3333 175.712 95.5867 175.2 95.032C174.688 94.456 173.92 93.9867 172.896 93.624C171.872 93.2613 170.613 92.9093 169.12 92.568C167.541 92.2053 166.208 91.8 165.12 91.352C164.032 90.904 163.211 90.3173 162.656 89.592C162.123 88.8453 161.856 87.864 161.856 86.648C161.856 85.24 162.197 84.056 162.88 83.096C163.584 82.1147 164.544 81.3787 165.76 80.888C166.976 80.376 168.373 80.12 169.952 80.12C170.955 80.12 171.883 80.2267 172.736 80.44C173.611 80.632 174.411 80.92 175.136 81.304C175.883 81.688 176.576 82.168 177.216 82.744L176.128 84.536ZM195.854 103H193.678V93.688C193.678 91.8107 193.347 90.4027 192.686 89.464C192.024 88.504 191.075 88.024 189.838 88.024C189.027 88.024 188.216 88.2373 187.406 88.664C186.616 89.0693 185.912 89.6347 185.294 90.36C184.696 91.064 184.27 91.8747 184.014 92.792V103H181.838V79.64H184.014V90.104C184.675 88.8667 185.592 87.8853 186.766 87.16C187.96 86.4133 189.23 86.04 190.574 86.04C191.534 86.04 192.344 86.2107 193.006 86.552C193.688 86.8933 194.232 87.3947 194.638 88.056C195.064 88.696 195.374 89.4533 195.566 90.328C195.758 91.1813 195.854 92.152 195.854 93.24V103ZM207.598 103.32C206.403 103.32 205.294 103.096 204.27 102.648C203.267 102.179 202.392 101.549 201.646 100.76C200.92 99.9493 200.355 99.032 199.95 98.008C199.544 96.9627 199.342 95.864 199.342 94.712C199.342 93.5173 199.544 92.408 199.95 91.384C200.355 90.3387 200.931 89.4213 201.678 88.632C202.424 87.8213 203.299 87.192 204.302 86.744C205.326 86.2747 206.435 86.04 207.63 86.04C208.824 86.04 209.923 86.2747 210.926 86.744C211.928 87.192 212.803 87.8213 213.55 88.632C214.296 89.4213 214.872 90.3387 215.278 91.384C215.683 92.408 215.886 93.5173 215.886 94.712C215.886 95.864 215.683 96.9627 215.278 98.008C214.872 99.032 214.296 99.9493 213.55 100.76C212.824 101.549 211.95 102.179 210.926 102.648C209.923 103.096 208.814 103.32 207.598 103.32ZM201.55 94.744C201.55 95.9813 201.816 97.112 202.35 98.136C202.904 99.1387 203.64 99.9387 204.558 100.536C205.475 101.112 206.488 101.4 207.598 101.4C208.707 101.4 209.72 101.101 210.638 100.504C211.555 99.9067 212.291 99.096 212.846 98.072C213.4 97.0267 213.678 95.896 213.678 94.68C213.678 93.4427 213.4 92.312 212.846 91.288C212.291 90.264 211.555 89.4533 210.638 88.856C209.72 88.2587 208.707 87.96 207.598 87.96C206.488 87.96 205.475 88.2693 204.558 88.888C203.662 89.5067 202.936 90.328 202.382 91.352C201.827 92.3547 201.55 93.4853 201.55 94.744ZM228.037 103.32C226.65 103.32 225.402 102.957 224.293 102.232C223.205 101.507 222.341 100.611 221.701 99.544V109.816H219.525V86.328H221.477V89.56C222.138 88.5147 223.024 87.672 224.133 87.032C225.242 86.3707 226.426 86.04 227.685 86.04C228.837 86.04 229.893 86.2853 230.853 86.776C231.813 87.2453 232.645 87.8853 233.349 88.696C234.053 89.5067 234.597 90.4347 234.981 91.48C235.386 92.504 235.589 93.5707 235.589 94.68C235.589 96.2373 235.269 97.6773 234.629 99C234.01 100.301 233.136 101.347 232.005 102.136C230.874 102.925 229.552 103.32 228.037 103.32ZM227.429 101.4C228.346 101.4 229.168 101.219 229.893 100.856C230.618 100.472 231.237 99.96 231.749 99.32C232.282 98.68 232.688 97.9653 232.965 97.176C233.242 96.3653 233.381 95.5333 233.381 94.68C233.381 93.784 233.221 92.9307 232.901 92.12C232.602 91.3093 232.165 90.5947 231.589 89.976C231.013 89.3573 230.352 88.8667 229.605 88.504C228.858 88.1413 228.048 87.96 227.173 87.96C226.618 87.96 226.042 88.0667 225.445 88.28C224.848 88.4933 224.272 88.8027 223.717 89.208C223.184 89.592 222.736 90.0293 222.373 90.52C222.01 91.0107 221.786 91.5333 221.701 92.088V97.208C222.042 97.9973 222.501 98.712 223.077 99.352C223.653 99.9707 224.314 100.472 225.061 100.856C225.829 101.219 226.618 101.4 227.429 101.4ZM247.787 103.32C246.4 103.32 245.152 102.957 244.043 102.232C242.955 101.507 242.091 100.611 241.451 99.544V109.816H239.275V86.328H241.227V89.56C241.888 88.5147 242.774 87.672 243.883 87.032C244.992 86.3707 246.176 86.04 247.435 86.04C248.587 86.04 249.643 86.2853 250.603 86.776C251.563 87.2453 252.395 87.8853 253.099 88.696C253.803 89.5067 254.347 90.4347 254.731 91.48C255.136 92.504 255.339 93.5707 255.339 94.68C255.339 96.2373 255.019 97.6773 254.379 99C253.76 100.301 252.886 101.347 251.755 102.136C250.624 102.925 249.302 103.32 247.787 103.32ZM247.179 101.4C248.096 101.4 248.918 101.219 249.643 100.856C250.368 100.472 250.987 99.96 251.499 99.32C252.032 98.68 252.438 97.9653 252.715 97.176C252.992 96.3653 253.131 95.5333 253.131 94.68C253.131 93.784 252.971 92.9307 252.651 92.12C252.352 91.3093 251.915 90.5947 251.339 89.976C250.763 89.3573 250.102 88.8667 249.355 88.504C248.608 88.1413 247.798 87.96 246.923 87.96C246.368 87.96 245.792 88.0667 245.195 88.28C244.598 88.4933 244.022 88.8027 243.467 89.208C242.934 89.592 242.486 90.0293 242.123 90.52C241.76 91.0107 241.536 91.5333 241.451 92.088V97.208C241.792 97.9973 242.251 98.712 242.827 99.352C243.403 99.9707 244.064 100.472 244.811 100.856C245.579 101.219 246.368 101.4 247.179 101.4ZM259.025 103V86.328H261.201V103H259.025ZM259.025 82.84V79.64H261.201V82.84H259.025ZM280.01 103H277.834V93.688C277.834 91.7253 277.546 90.296 276.97 89.4C276.394 88.4827 275.487 88.024 274.25 88.024C273.396 88.024 272.554 88.2373 271.722 88.664C270.89 89.0693 270.154 89.6347 269.514 90.36C268.895 91.064 268.447 91.8747 268.17 92.792V103H265.994V86.328H267.978V90.104C268.426 89.2933 269.012 88.5893 269.738 87.992C270.463 87.3733 271.284 86.8933 272.202 86.552C273.119 86.2107 274.068 86.04 275.05 86.04C275.967 86.04 276.746 86.2107 277.386 86.552C278.026 86.8933 278.538 87.384 278.922 88.024C279.306 88.6427 279.583 89.4 279.754 90.296C279.924 91.1707 280.01 92.152 280.01 93.24V103ZM291.338 103.224C290.207 103.224 289.162 102.989 288.202 102.52C287.242 102.051 286.41 101.421 285.706 100.632C285.023 99.8213 284.49 98.904 284.106 97.88C283.722 96.856 283.53 95.8 283.53 94.712C283.53 93.5387 283.711 92.44 284.074 91.416C284.458 90.3707 284.991 89.4427 285.674 88.632C286.378 87.8213 287.199 87.192 288.138 86.744C289.077 86.2747 290.122 86.04 291.274 86.04C292.703 86.04 293.941 86.4027 294.986 87.128C296.053 87.8533 296.949 88.7493 297.674 89.816V86.328H299.626V103.064C299.626 104.6 299.253 105.891 298.506 106.936C297.781 108.003 296.789 108.803 295.53 109.336C294.293 109.869 292.938 110.136 291.466 110.136C289.567 110.136 288.031 109.795 286.858 109.112C285.685 108.429 284.725 107.512 283.978 106.36L285.322 105.304C285.983 106.349 286.858 107.128 287.946 107.64C289.055 108.152 290.229 108.408 291.466 108.408C292.554 108.408 293.546 108.205 294.442 107.8C295.359 107.416 296.085 106.829 296.618 106.04C297.173 105.251 297.45 104.259 297.45 103.064V99.768C296.81 100.813 295.935 101.656 294.826 102.296C293.717 102.915 292.554 103.224 291.338 103.224ZM291.946 101.4C292.607 101.4 293.237 101.283 293.834 101.048C294.453 100.813 295.018 100.504 295.53 100.12C296.042 99.7147 296.469 99.2667 296.81 98.776C297.151 98.2853 297.365 97.784 297.45 97.272V92.12C297.13 91.3093 296.671 90.5947 296.074 89.976C295.477 89.336 294.794 88.8453 294.026 88.504C293.279 88.1413 292.501 87.96 291.69 87.96C290.751 87.96 289.909 88.1627 289.162 88.568C288.437 88.952 287.818 89.4747 287.306 90.136C286.815 90.776 286.431 91.5013 286.154 92.312C285.877 93.1227 285.738 93.9333 285.738 94.744C285.738 95.64 285.898 96.4933 286.218 97.304C286.538 98.0933 286.975 98.808 287.53 99.448C288.106 100.067 288.767 100.547 289.514 100.888C290.282 101.229 291.093 101.4 291.946 101.4ZM337.388 103H335.212V93.688C335.212 91.7467 334.902 90.3173 334.284 89.4C333.665 88.4827 332.748 88.024 331.532 88.024C330.273 88.024 329.142 88.472 328.14 89.368C327.158 90.264 326.465 91.416 326.06 92.824V103H323.884V93.688C323.884 91.7253 323.585 90.296 322.988 89.4C322.39 88.4827 321.473 88.024 320.236 88.024C318.998 88.024 317.878 88.4613 316.876 89.336C315.873 90.2107 315.169 91.3627 314.764 92.792V103H312.588V86.328H314.572V90.104C315.276 88.8027 316.172 87.8 317.26 87.096C318.369 86.392 319.596 86.04 320.94 86.04C322.326 86.04 323.446 86.4347 324.3 87.224C325.153 88.0133 325.676 89.048 325.868 90.328C326.636 88.92 327.553 87.8533 328.62 87.128C329.708 86.4027 330.934 86.04 332.3 86.04C333.238 86.04 334.028 86.2107 334.668 86.552C335.329 86.8933 335.852 87.384 336.236 88.024C336.641 88.6427 336.929 89.4 337.1 90.296C337.292 91.1707 337.388 92.152 337.388 93.24V103ZM340.65 98.2C340.65 97.1547 340.948 96.2587 341.546 95.512C342.143 94.744 342.964 94.1573 344.01 93.752C345.076 93.3253 346.303 93.112 347.69 93.112C348.5 93.112 349.343 93.176 350.218 93.304C351.092 93.432 351.871 93.624 352.554 93.88V92.472C352.554 91.064 352.138 89.944 351.306 89.112C350.474 88.28 349.322 87.864 347.85 87.864C346.954 87.864 346.068 88.0347 345.194 88.376C344.34 88.696 343.444 89.176 342.506 89.816L341.674 88.28C342.762 87.5333 343.828 86.9787 344.874 86.616C345.919 86.232 346.986 86.04 348.074 86.04C350.122 86.04 351.743 86.6267 352.938 87.8C354.132 88.9733 354.73 90.5947 354.73 92.664V100.376C354.73 100.675 354.794 100.899 354.922 101.048C355.05 101.176 355.252 101.251 355.53 101.272V103C355.295 103.021 355.092 103.043 354.922 103.064C354.751 103.085 354.623 103.085 354.538 103.064C354.004 103.043 353.599 102.872 353.322 102.552C353.044 102.232 352.895 101.891 352.874 101.528L352.842 100.312C352.095 101.272 351.124 102.019 349.93 102.552C348.735 103.064 347.519 103.32 346.282 103.32C345.215 103.32 344.244 103.096 343.37 102.648C342.516 102.179 341.844 101.56 341.354 100.792C340.884 100.003 340.65 99.1387 340.65 98.2ZM351.818 99.48C352.052 99.1813 352.234 98.8933 352.362 98.616C352.49 98.3387 352.554 98.0933 352.554 97.88V95.448C351.828 95.1707 351.071 94.9573 350.282 94.808C349.514 94.6587 348.735 94.584 347.946 94.584C346.388 94.584 345.13 94.8933 344.17 95.512C343.21 96.1307 342.73 96.9733 342.73 98.04C342.73 98.6587 342.89 99.2453 343.21 99.8C343.53 100.333 343.999 100.781 344.618 101.144C345.236 101.485 345.962 101.656 346.794 101.656C347.839 101.656 348.81 101.453 349.706 101.048C350.623 100.643 351.327 100.12 351.818 99.48ZM358.311 94.712C358.311 93.1333 358.631 91.6933 359.271 90.392C359.933 89.0693 360.839 88.0133 361.991 87.224C363.143 86.4347 364.455 86.04 365.927 86.04C367.314 86.04 368.551 86.4133 369.639 87.16C370.749 87.8853 371.613 88.7707 372.231 89.816V79.64H374.407V100.376C374.407 100.675 374.471 100.899 374.599 101.048C374.727 101.176 374.919 101.251 375.175 101.272V103C374.749 103.064 374.418 103.085 374.183 103.064C373.735 103.043 373.341 102.861 372.999 102.52C372.658 102.179 372.487 101.805 372.487 101.4V99.768C371.826 100.856 370.93 101.72 369.799 102.36C368.669 103 367.495 103.32 366.279 103.32C365.127 103.32 364.061 103.085 363.079 102.616C362.119 102.147 361.277 101.507 360.551 100.696C359.847 99.8853 359.293 98.968 358.887 97.944C358.503 96.8987 358.311 95.8213 358.311 94.712ZM372.231 97.272V92.12C371.954 91.352 371.506 90.6587 370.887 90.04C370.269 89.4 369.565 88.8987 368.775 88.536C368.007 88.152 367.239 87.96 366.471 87.96C365.575 87.96 364.765 88.152 364.039 88.536C363.314 88.8987 362.685 89.4 362.151 90.04C361.639 90.68 361.245 91.4053 360.967 92.216C360.69 93.0267 360.551 93.8587 360.551 94.712C360.551 95.608 360.701 96.4613 360.999 97.272C361.319 98.0827 361.767 98.808 362.343 99.448C362.919 100.067 363.581 100.547 364.327 100.888C365.074 101.229 365.885 101.4 366.759 101.4C367.314 101.4 367.89 101.293 368.487 101.08C369.085 100.867 369.65 100.579 370.183 100.216C370.738 99.832 371.197 99.384 371.559 98.872C371.922 98.36 372.146 97.8267 372.231 97.272ZM386.538 103.32C385.343 103.32 384.234 103.096 383.21 102.648C382.186 102.179 381.3 101.549 380.554 100.76C379.807 99.9493 379.22 99.0213 378.794 97.976C378.388 96.9307 378.186 95.8107 378.186 94.616C378.186 93.0587 378.538 91.6293 379.242 90.328C379.967 89.0267 380.959 87.992 382.218 87.224C383.476 86.4347 384.906 86.04 386.506 86.04C388.148 86.04 389.578 86.4347 390.794 87.224C392.031 88.0133 393.002 89.0587 393.706 90.36C394.41 91.64 394.762 93.048 394.762 94.584C394.762 94.7547 394.762 94.9253 394.762 95.096C394.762 95.2453 394.751 95.3627 394.73 95.448H380.458C380.564 96.6427 380.895 97.7093 381.45 98.648C382.026 99.5653 382.762 100.301 383.658 100.856C384.575 101.389 385.567 101.656 386.634 101.656C387.722 101.656 388.746 101.379 389.706 100.824C390.687 100.269 391.37 99.544 391.754 98.648L393.642 99.16C393.3 99.9493 392.778 100.664 392.074 101.304C391.37 101.944 390.538 102.445 389.578 102.808C388.639 103.149 387.626 103.32 386.538 103.32ZM380.394 93.88H392.714C392.628 92.664 392.298 91.5973 391.722 90.68C391.167 89.7627 390.431 89.048 389.514 88.536C388.618 88.0027 387.626 87.736 386.538 87.736C385.45 87.736 384.458 88.0027 383.562 88.536C382.666 89.048 381.93 89.7733 381.354 90.712C380.799 91.6293 380.479 92.6853 380.394 93.88ZM413.475 103.32C412.28 103.32 411.171 103.096 410.147 102.648C409.123 102.179 408.238 101.549 407.491 100.76C406.744 99.9493 406.158 99.0213 405.731 97.976C405.326 96.9307 405.123 95.8107 405.123 94.616C405.123 93.0587 405.475 91.6293 406.179 90.328C406.904 89.0267 407.896 87.992 409.155 87.224C410.414 86.4347 411.843 86.04 413.443 86.04C415.086 86.04 416.515 86.4347 417.731 87.224C418.968 88.0133 419.939 89.0587 420.643 90.36C421.347 91.64 421.699 93.048 421.699 94.584C421.699 94.7547 421.699 94.9253 421.699 95.096C421.699 95.2453 421.688 95.3627 421.667 95.448H407.395C407.502 96.6427 407.832 97.7093 408.387 98.648C408.963 99.5653 409.699 100.301 410.595 100.856C411.512 101.389 412.504 101.656 413.571 101.656C414.659 101.656 415.683 101.379 416.643 100.824C417.624 100.269 418.307 99.544 418.691 98.648L420.579 99.16C420.238 99.9493 419.715 100.664 419.011 101.304C418.307 101.944 417.475 102.445 416.515 102.808C415.576 103.149 414.563 103.32 413.475 103.32ZM407.331 93.88H419.651C419.566 92.664 419.235 91.5973 418.659 90.68C418.104 89.7627 417.368 89.048 416.451 88.536C415.555 88.0027 414.563 87.736 413.475 87.736C412.387 87.736 411.395 88.0027 410.499 88.536C409.603 89.048 408.867 89.7733 408.291 90.712C407.736 91.6293 407.416 92.6853 407.331 93.88ZM423.712 98.2C423.712 97.1547 424.011 96.2587 424.608 95.512C425.206 94.744 426.027 94.1573 427.072 93.752C428.139 93.3253 429.366 93.112 430.752 93.112C431.563 93.112 432.406 93.176 433.28 93.304C434.155 93.432 434.934 93.624 435.616 93.88V92.472C435.616 91.064 435.2 89.944 434.368 89.112C433.536 88.28 432.384 87.864 430.912 87.864C430.016 87.864 429.131 88.0347 428.256 88.376C427.403 88.696 426.507 89.176 425.568 89.816L424.736 88.28C425.824 87.5333 426.891 86.9787 427.936 86.616C428.982 86.232 430.048 86.04 431.136 86.04C433.184 86.04 434.806 86.6267 436 87.8C437.195 88.9733 437.792 90.5947 437.792 92.664V100.376C437.792 100.675 437.856 100.899 437.984 101.048C438.112 101.176 438.315 101.251 438.592 101.272V103C438.358 103.021 438.155 103.043 437.984 103.064C437.814 103.085 437.686 103.085 437.6 103.064C437.067 103.043 436.662 102.872 436.384 102.552C436.107 102.232 435.958 101.891 435.936 101.528L435.904 100.312C435.158 101.272 434.187 102.019 432.992 102.552C431.798 103.064 430.582 103.32 429.344 103.32C428.278 103.32 427.307 103.096 426.432 102.648C425.579 102.179 424.907 101.56 424.416 100.792C423.947 100.003 423.712 99.1387 423.712 98.2ZM434.88 99.48C435.115 99.1813 435.296 98.8933 435.424 98.616C435.552 98.3387 435.616 98.0933 435.616 97.88V95.448C434.891 95.1707 434.134 94.9573 433.344 94.808C432.576 94.6587 431.798 94.584 431.008 94.584C429.451 94.584 428.192 94.8933 427.232 95.512C426.272 96.1307 425.792 96.9733 425.792 98.04C425.792 98.6587 425.952 99.2453 426.272 99.8C426.592 100.333 427.062 100.781 427.68 101.144C428.299 101.485 429.024 101.656 429.856 101.656C430.902 101.656 431.872 101.453 432.768 101.048C433.686 100.643 434.39 100.12 434.88 99.48ZM447.966 103.32C446.6 103.32 445.331 103.096 444.158 102.648C442.984 102.2 441.971 101.517 441.118 100.6L442.014 99.064C442.952 99.9387 443.891 100.579 444.83 100.984C445.79 101.368 446.803 101.56 447.87 101.56C449.171 101.56 450.227 101.304 451.038 100.792C451.848 100.259 452.254 99.5013 452.254 98.52C452.254 97.8587 452.051 97.3573 451.646 97.016C451.262 96.6533 450.696 96.3653 449.95 96.152C449.224 95.9173 448.35 95.672 447.326 95.416C446.174 95.096 445.203 94.7653 444.414 94.424C443.646 94.0613 443.059 93.6133 442.654 93.08C442.27 92.5253 442.078 91.8107 442.078 90.936C442.078 89.848 442.344 88.952 442.878 88.248C443.432 87.5227 444.179 86.9787 445.118 86.616C446.078 86.232 447.144 86.04 448.318 86.04C449.598 86.04 450.728 86.2427 451.71 86.648C452.691 87.0533 453.491 87.6187 454.11 88.344L453.054 89.816C452.456 89.1333 451.742 88.632 450.91 88.312C450.099 87.9707 449.192 87.8 448.19 87.8C447.507 87.8 446.856 87.896 446.238 88.088C445.619 88.2587 445.107 88.5573 444.702 88.984C444.318 89.3893 444.126 89.9547 444.126 90.68C444.126 91.2773 444.275 91.7467 444.574 92.088C444.872 92.408 445.32 92.6853 445.918 92.92C446.515 93.1333 447.251 93.368 448.126 93.624C449.384 93.9653 450.483 94.3173 451.422 94.68C452.36 95.0213 453.086 95.4693 453.598 96.024C454.11 96.5787 454.366 97.3573 454.366 98.36C454.366 99.9173 453.779 101.133 452.606 102.008C451.432 102.883 449.886 103.32 447.966 103.32ZM457.963 103V86.328H460.139V103H457.963ZM457.963 82.84V79.64H460.139V82.84H457.963ZM472.131 103.32C470.937 103.32 469.827 103.096 468.803 102.648C467.779 102.179 466.894 101.549 466.147 100.76C465.401 99.9493 464.814 99.0213 464.387 97.976C463.982 96.9307 463.779 95.8107 463.779 94.616C463.779 93.0587 464.131 91.6293 464.835 90.328C465.561 89.0267 466.553 87.992 467.811 87.224C469.07 86.4347 470.499 86.04 472.099 86.04C473.742 86.04 475.171 86.4347 476.387 87.224C477.625 88.0133 478.595 89.0587 479.299 90.36C480.003 91.64 480.355 93.048 480.355 94.584C480.355 94.7547 480.355 94.9253 480.355 95.096C480.355 95.2453 480.345 95.3627 480.323 95.448H466.051C466.158 96.6427 466.489 97.7093 467.043 98.648C467.619 99.5653 468.355 100.301 469.251 100.856C470.169 101.389 471.161 101.656 472.227 101.656C473.315 101.656 474.339 101.379 475.299 100.824C476.281 100.269 476.963 99.544 477.347 98.648L479.235 99.16C478.894 99.9493 478.371 100.664 477.667 101.304C476.963 101.944 476.131 102.445 475.171 102.808C474.233 103.149 473.219 103.32 472.131 103.32ZM465.987 93.88H478.307C478.222 92.664 477.891 91.5973 477.315 90.68C476.761 89.7627 476.025 89.048 475.107 88.536C474.211 88.0027 473.219 87.736 472.131 87.736C471.043 87.736 470.051 88.0027 469.155 88.536C468.259 89.048 467.523 89.7733 466.947 90.712C466.393 91.6293 466.073 92.6853 465.987 93.88ZM492.033 88.248C490.582 88.2907 489.302 88.696 488.193 89.464C487.105 90.232 486.337 91.288 485.889 92.632V103H483.713V86.328H485.761V90.328C486.337 89.1547 487.094 88.2053 488.033 87.48C488.993 86.7547 490.006 86.3493 491.073 86.264C491.286 86.2427 491.467 86.232 491.617 86.232C491.787 86.232 491.926 86.2427 492.033 86.264V88.248ZM491.486 103V99.864H493.374V103H491.486Z" fill="black" fill-opacity="0.7"/>
</g>
<defs>
<linearGradient id="paint0_linear_50_103" x1="0" y1="0" x2="128" y2="128" gradientUnits="userSpaceOnUse">
<stop stop-color="#FA784B"/>
<stop offset="1" stop-color="#FE50D1"/>
</linearGradient>
<linearGradient id="paint1_linear_50_103" x1="160" y1="45" x2="300" y2="45" gradientUnits="userSpaceOnUse">
<stop stop-color="#FA784B"/>
<stop offset="1" stop-color="#FE50D1"/>
</linearGradient>
<clipPath id="clip0_50_103">
<rect width="496" height="128" fill="white"/>
</clipPath>
</defs>
</svg>
