<svg width="738" height="130" viewBox="0 0 738 130" fill="none" xmlns="http://www.w3.org/2000/svg">
    <rect width="128" height="128" rx="32" fill="url(#paint0_linear_268_64)"/>
<path d="M44.979 104C42.993 104 41.3 103.293 39.9 101.879C38.5 100.465 37.8 98.765 37.8 96.779C37.8 94.793 38.507 93.1 39.921 91.7C41.335 90.3 43.035 89.6 45.021 89.6C47.007 89.6 48.7 90.307 50.1 91.721C51.5 93.135 52.2 94.835 52.2 96.821C52.2 98.807 51.493 100.5 50.079 101.9C48.665 103.3 46.965 104 44.979 104ZM85.379 104C83.393 104 81.7 103.293 80.3 101.879C78.9 100.465 78.2 98.765 78.2 96.779C78.2 94.793 78.907 93.1 80.321 91.7C81.735 90.3 83.435 89.6 85.421 89.6C87.407 89.6 89.1 90.307 90.5 91.721C91.9 93.135 92.6 94.835 92.6 96.821C92.6 98.807 91.893 100.5 90.479 101.9C89.065 103.3 87.365 104 85.379 104ZM30 30H25.2C24.35 30 23.6377 29.7107 23.063 29.132C22.4877 28.554 22.2 27.8373 22.2 26.982C22.2 26.1273 22.4877 25.4167 23.063 24.85C23.6377 24.2833 24.35 24 25.2 24H31.9C32.5 24 33.04 24.1477 33.52 24.443C34 24.739 34.36 25.158 34.6 25.7L50.8 60.4H79.6L94.8 33.9C95.0667 33.4333 95.425 33.0667 95.875 32.8C96.325 32.5333 96.825 32.4 97.375 32.4C98.525 32.4 99.3833 32.8667 99.95 33.8C100.517 34.7333 100.533 35.7 100 36.7L86.1 62.7C85.3667 63.9667 84.4147 64.9833 83.244 65.75C82.0733 66.5167 80.792 66.9 79.4 66.9H49.1L43.5 77.3H89.6C90.45 77.3 91.1627 77.5893 91.738 78.168C92.3127 78.746 92.6 79.4627 92.6 80.318C92.6 81.1727 92.3127 81.8833 91.738 82.45C91.1627 83.0167 90.45 83.3 89.6 83.3H44.4C41.8893 83.3 39.9783 82.3 38.667 80.3C37.3557 78.3 37.2667 76.2667 38.4 74.2L44.8 62.4L30 30ZM67.2 43H52C51.15 43 50.4377 42.7107 49.863 42.132C49.2877 41.554 49 40.8373 49 39.982C49 39.1273 49.2877 38.4167 49.863 37.85C50.4377 37.2833 51.15 37 52 37H67.2L61.9 31.7C61.3 31.1 61 30.4 61 29.6C61 28.8 61.3 28.087 61.9 27.461C62.5 26.887 63.2 26.6 64 26.6C64.8 26.6 65.5 26.9 66.1 27.5L76.5 37.9C77.1 38.5 77.4 39.2 77.4 40C77.4 40.8 77.1 41.5 76.5 42.1L66.1 52.5C65.5 53.1 64.8 53.4 64 53.4C63.2 53.4 62.5 53.1 61.9 52.5C61.3 51.9 61 51.2 61 50.4C61 49.6 61.3 48.9 61.9 48.3L67.2 43Z" fill="white"/>
<path d="M216.256 55.408H183.52V68.848H209.632V81.616H183.52V106H167.008V42.64H216.256V55.408ZM232.797 52.432C229.469 52.432 227.037 51.824 225.501 50.608C224.029 49.328 223.293 47.344 223.293 44.656C223.293 41.904 224.029 39.92 225.501 38.704C227.037 37.424 229.469 36.784 232.797 36.784C236.061 36.784 238.461 37.424 239.997 38.704C241.533 39.92 242.301 41.904 242.301 44.656C242.301 47.344 241.533 49.328 239.997 50.608C238.461 51.824 236.061 52.432 232.797 52.432ZM240.957 58V106H224.637V58H240.957ZM252.575 106V58H267.167L268.031 74.512L266.207 72.688C266.847 69.232 267.967 66.352 269.567 64.048C271.231 61.744 273.279 60.016 275.711 58.864C278.207 57.648 280.991 57.04 284.063 57.04C287.391 57.04 290.271 57.68 292.703 58.96C295.199 60.24 297.151 62.128 298.559 64.624C299.967 67.12 300.671 70.256 300.671 74.032V106H284.351V78.352C284.351 75.024 283.711 72.72 282.431 71.44C281.151 70.16 279.519 69.52 277.535 69.52C275.999 69.52 274.559 69.904 273.215 70.672C271.871 71.376 270.815 72.528 270.047 74.128C269.279 75.728 268.895 77.872 268.895 80.56V106H252.575ZM329.77 106.96C325.802 106.96 322.314 106 319.306 104.08C316.362 102.096 314.058 99.248 312.394 95.536C310.794 91.824 309.994 87.376 309.994 82.192C309.994 76.816 310.826 72.272 312.49 68.56C314.218 64.848 316.586 62 319.594 60.016C322.666 58.032 326.186 57.04 330.154 57.04C334.506 57.04 337.994 58.384 340.618 61.072C343.306 63.696 345.034 67.056 345.802 71.152L344.266 73.168V37.648H360.586V106H345.994L344.938 89.68L346.858 91.12C346.474 94.32 345.482 97.104 343.882 99.472C342.346 101.84 340.362 103.696 337.93 105.04C335.562 106.32 332.842 106.96 329.77 106.96ZM335.434 94.96C337.29 94.96 338.858 94.48 340.138 93.52C341.482 92.496 342.506 90.992 343.21 89.008C343.914 87.024 344.266 84.592 344.266 81.712C344.266 79.024 343.914 76.752 343.21 74.896C342.57 72.976 341.578 71.536 340.234 70.576C338.954 69.552 337.386 69.04 335.53 69.04C332.714 69.04 330.474 70.096 328.81 72.208C327.21 74.256 326.41 77.52 326.41 82C326.41 86.48 327.21 89.776 328.81 91.888C330.41 93.936 332.618 94.96 335.434 94.96ZM389.77 42.64V106H373.258V42.64H389.77ZM422.733 42.736V88.912C422.733 91.216 423.277 92.88 424.365 93.904C425.517 94.864 427.085 95.344 429.069 95.344C430.605 95.344 431.917 95.184 433.005 94.864C434.157 94.48 435.181 93.936 436.077 93.232L437.805 103.312C436.205 104.464 434.189 105.36 431.757 106C429.325 106.64 426.829 106.96 424.269 106.96C420.621 106.96 417.453 106.448 414.765 105.424C412.141 104.4 410.093 102.768 408.621 100.528C407.213 98.288 406.477 95.312 406.413 91.6V47.248L422.733 42.736ZM437.037 58V69.616H398.157V58H437.037ZM499.583 106H491.423L484.703 88.432H455.999L449.279 106H441.215L465.887 42.64H475.007L499.583 106ZM458.783 81.232H481.919L470.303 50.032L458.783 81.232ZM528.898 106.96C524.93 106.96 521.282 105.968 517.954 103.984C514.626 102 511.97 99.152 509.986 95.44C508.002 91.664 507.01 87.184 507.01 82C507.01 76.688 508.066 72.176 510.178 68.464C512.29 64.752 515.074 61.936 518.53 60.016C521.986 58.032 525.698 57.04 529.666 57.04C533.634 57.04 537.058 58.064 539.938 60.112C542.882 62.16 544.834 64.88 545.794 68.272L544.834 68.944V35.92H552.514V106H545.794L545.122 94.384L546.178 93.808C545.73 96.624 544.642 99.024 542.914 101.008C541.25 102.928 539.17 104.4 536.674 105.424C534.242 106.448 531.65 106.96 528.898 106.96ZM529.666 100.24C532.738 100.24 535.394 99.472 537.634 97.936C539.938 96.4 541.698 94.224 542.914 91.408C544.194 88.528 544.834 85.168 544.834 81.328C544.834 77.68 544.194 74.544 542.914 71.92C541.698 69.296 539.97 67.28 537.73 65.872C535.554 64.464 532.994 63.76 530.05 63.76C525.186 63.76 521.41 65.424 518.722 68.752C516.034 72.08 514.69 76.496 514.69 82C514.69 87.504 516.002 91.92 518.626 95.248C521.25 98.576 524.93 100.24 529.666 100.24ZM570.366 106V58H577.086L577.566 65.488C579.294 62.544 581.534 60.4 584.286 59.056C587.102 57.712 589.982 57.04 592.926 57.04C596.318 57.04 599.518 57.808 602.526 59.344C605.534 60.88 607.838 63.248 609.438 66.448C610.462 64.272 611.902 62.512 613.758 61.168C615.614 59.76 617.63 58.736 619.806 58.096C622.046 57.392 624.158 57.04 626.142 57.04C629.214 57.04 632.126 57.68 634.878 58.96C637.694 60.24 639.998 62.224 641.79 64.912C643.582 67.6 644.478 71.056 644.478 75.28V106H636.798V76.048C636.798 71.696 635.71 68.56 633.534 66.64C631.358 64.72 628.67 63.76 625.47 63.76C622.974 63.76 620.638 64.368 618.462 65.584C616.286 66.8 614.526 68.592 613.182 70.96C611.902 73.328 611.262 76.24 611.262 79.696V106H603.582V76.048C603.582 71.696 602.494 68.56 600.318 66.64C598.142 64.72 595.454 63.76 592.254 63.76C590.142 63.76 587.966 64.336 585.726 65.488C583.55 66.576 581.726 68.336 580.254 70.768C578.782 73.2 578.046 76.4 578.046 80.368V106H570.366ZM665.706 48.784C663.978 48.784 662.57 48.272 661.482 47.248C660.458 46.16 659.946 44.752 659.946 43.024C659.946 41.296 660.458 39.92 661.482 38.896C662.57 37.808 663.978 37.264 665.706 37.264C667.434 37.264 668.81 37.808 669.834 38.896C670.922 39.92 671.466 41.296 671.466 43.024C671.466 44.752 670.922 46.16 669.834 47.248C668.81 48.272 667.434 48.784 665.706 48.784ZM669.546 58V106H661.866V58H669.546ZM687.366 106V58H694.086L694.758 68.752L693.51 67.696C694.534 65.136 695.91 63.088 697.638 61.552C699.366 59.952 701.35 58.8 703.59 58.096C705.894 57.392 708.262 57.04 710.694 57.04C714.15 57.04 717.286 57.712 720.102 59.056C722.918 60.336 725.158 62.32 726.822 65.008C728.55 67.696 729.414 71.12 729.414 75.28V106H721.734V77.968C721.734 72.656 720.582 68.976 718.278 66.928C716.038 64.816 713.254 63.76 709.926 63.76C707.622 63.76 705.318 64.304 703.014 65.392C700.71 66.48 698.79 68.24 697.254 70.672C695.782 73.104 695.046 76.368 695.046 80.464V106H687.366Z" fill="url(#paint1_linear_268_64)"/>
<defs>
<linearGradient id="paint0_linear_268_64" x1="0" y1="0" x2="128" y2="128" gradientUnits="userSpaceOnUse">
<stop stop-color="#FA784B"/>
<stop offset="1" stop-color="#FE50D1"/>
</linearGradient>
<linearGradient id="paint1_linear_268_64" x1="160" y1="73.5" x2="738" y2="73.5" gradientUnits="userSpaceOnUse">
<stop stop-color="#FA784B"/>
<stop offset="1" stop-color="#FE50D1"/>
</linearGradient>
</defs>
</svg>
